# xmcd CD database file
#
# Track frame offsets:
#	150
#	35670
#	47932
#	61004
#	72988
#	87191
#	99768
#	114059
#	149370
#	162402
#	176198
#	189464
#	201939
#
# Disc length: 2852 seconds
#
# Revision: 3
# Processed by: cddbd v1.5.2PL0 Copyright (c) Steve Scherf et al.
# Submitted via: CDex 1.51
#
DISCID=b20b220d
DTITLE=Dizzy Gillespie - Salt Peanuts  [CD 06-10]
DYEAR=1900
DGENRE=Jazz
TTITLE0=A Night In Tunisia
TTITLE1=Blue And Sentimental
TTITLE2=Caravan
TTITLE3=Cuban Be
TTITLE4=Duff Capers
TTITLE5=Ebony Silhouette
TTITLE6=Run Little Rabbit
TTITLE7=Salt Peanuts
TTITLE8=Good Jelly Blues
TTITLE9=Hep Cat's Love Song
TTITLE10=I've Got A Date With Rhythm
TTITLE11=Ol' Man Rebop
TTITLE12=She's Gone Again
EXTD=
EXTT0=
EXTT1=
EXTT2=
EXTT3=
EXTT4=
EXTT5=
EXTT6=
EXTT7=
EXTT8=
EXTT9=
EXTT10=
EXTT11=
EXTT12=
PLAYORDER=
